{
  "accessors": [
    {
      "bufferView": 2,
      "componentType": 5126,
      "count": 494,
      "max": [
        1.5155450105667114,
        1.1227810382843018,
        0.8512399792671204
      ],
      "min": [
        -1.5155450105667114,
        -1.1227810382843018,
        0.0
      ],
      "type": "VEC3"
    },
    {
      "bufferView": 2,
      "byteOffset": 5928,
      "componentType": 5126,
      "count": 494,
      "max": [
        0.9889866709709167,
        0.9998419880867004,
        1.0
      ],
      "min": [
        -0.9889782071113586,
        -0.9998419880867004,
        -1.0
      ],
      "type": "VEC3"
    },
    {
      "bufferView": 3,
      "componentType": 5126,
      "count": 494,
      "max": [
        1.0,
        0.998541533946991,
        0.9842519164085388,
        1.0
      ],
      "min": [
        -1.0,
        -0.9985908269882202,
        -0.9888533353805542,
        1.0
      ],
      "type": "VEC4"
    },
    {
      "bufferView": 1,
      "componentType": 5126,
      "count": 494,
      "max": [
        0.974012017250061,
        0.9971669912338257
      ],
      "min": [
        0.0028349999338388443,
        0.0028359999414533377
      ],
      "type": "VEC2"
    },
    {
      "bufferView": 0,
      "componentType": 5125,
      "count": 1548,
      "type": "SCALAR"
    }
  ],
  "asset": {
    "extras": {
      "author": "BlinFriend (https://sketchfab.com/BlinFriend)",
      "license": "CC-BY-4.0 (http://creativecommons.org/licenses/by/4.0/)",
      "source": "https://sketchfab.com/3d-models/a-tin-basin-d9921fc7583f4fa9a5e0aa73348f1bac",
      "title": "A tin basin"
    },
    "generator": "Sketchfab-12.66.0",
    "version": "2.0"
  },
  "bufferViews": [
    {
      "buffer": 0,
      "byteLength": 6192,
      "name": "floatBufferViews",
      "target": 34963
    },
    {
      "buffer": 0,
      "byteLength": 3952,
      "byteOffset": 6192,
      "byteStride": 8,
      "name": "floatBufferViews",
      "target": 34962
    },
    {
      "buffer": 0,
      "byteLength": 11856,
      "byteOffset": 10144,
      "byteStride": 12,
      "name": "floatBufferViews",
      "target": 34962
    },
    {
      "buffer": 0,
      "byteLength": 7904,
      "byteOffset": 22000,
      "byteStride": 16,
      "name": "floatBufferViews",
      "target": 34962
    }
  ],
  "buffers": [
    {
      "byteLength": 29904,
      "uri": "scene.bin"
    }
  ],
  "images": [
    {
      "uri": "textures/Back_baseColor.png"
    },
    {
      "uri": "textures/Back_metallicRoughness.png"
    },
    {
      "uri": "textures/Back_normal.png"
    }
  ],
  "materials": [
    {
      "doubleSided": true,
      "name": "Back",
      "normalTexture": {
        "index": 2
      },
      "occlusionTexture": {
        "index": 1
      },
      "pbrMetallicRoughness": {
        "baseColorTexture": {
          "index": 0
        },
        "metallicRoughnessTexture": {
          "index": 1
        }
      }
    }
  ],
  "meshes": [
    {
      "name": "Object_0",
      "primitives": [
        {
          "attributes": {
            "NORMAL": 1,
            "POSITION": 0,
            "TANGENT": 2,
            "TEXCOORD_0": 3
          },
          "indices": 4,
          "material": 0,
          "mode": 4
        }
      ]
    }
  ],
  "nodes": [
    {
      "children": [
        1
      ],
      "matrix": [
        1.0,
        0.0,
        0.0,
        0.0,
        0.0,
        2.220446049250313e-16,
        -1.0,
        0.0,
        0.0,
        1.0,
        2.220446049250313e-16,
        0.0,
        0.0,
        0.0,
        0.0,
        1.0
      ],
      "name": "Sketchfab_model"
    },
    {
      "children": [
        2
      ],
      "name": "14411b5e53e74818b33086145ccfc311.obj.cleaner.materialmerger.gles"
    },
    {
      "mesh": 0,
      "name": "Object_2"
    }
  ],
  "samplers": [
    {
      "magFilter": 9729,
      "minFilter": 9987,
      "wrapS": 10497,
      "wrapT": 10497
    }
  ],
  "scene": 0,
  "scenes": [
    {
      "name": "Sketchfab_Scene",
      "nodes": [
        0
      ]
    }
  ],
  "textures": [
    {
      "sampler": 0,
      "source": 0
    },
    {
      "sampler": 0,
      "source": 1
    },
    {
      "sampler": 0,
      "source": 2
    }
  ]
}
